<svg xmlns="http://www.w3.org/2000/svg" xmlns:xlink="http://www.w3.org/1999/xlink" width="256" height="256" viewBox="0 0 256 256"><defs><clipPath id="b"><rect width="256" height="256"/></clipPath></defs><g id="a" clip-path="url(#b)"><g fill="#e95c3f" stroke="#fff" stroke-width="5"><circle cx="128" cy="128" r="128" stroke="none"/><circle cx="128" cy="128" r="125.5" fill="none"/></g><path d="M121.827,106.673c-62.546,0-118.279,65.012-120.624,67.784a5.07,5.07,0,0,0,0,6.558A254.073,254.073,0,0,0,52.632,225.4l31.816-31.816a40.59,40.59,0,0,1,53.226-53.226L163.835,114.2A123.989,123.989,0,0,0,121.827,106.673Z" transform="translate(6 -49.096)" fill="#fff"/><path d="M276.3,152.476c-1.3-1.878-22.852-32.212-59.084-51.764L245.27,72.662a5.075,5.075,0,0,0-7.177-7.177L65.512,238.066a5.08,5.08,0,0,0,0,7.177,5.025,5.025,0,0,0,3.584,1.492,5.1,5.1,0,0,0,3.594-1.482l31.826-31.826c15.685,7.654,32.983,13,50.871,13,62.546,0,118.279-65.012,120.624-67.784A5.093,5.093,0,0,0,276.3,152.476Zm-120.918,43.5a40.246,40.246,0,0,1-24.77-8.659L187.334,130.6a40.388,40.388,0,0,1-31.948,65.377Z" transform="translate(-27.559 -26.729)" fill="#fff"/><circle cx="31" cy="31" r="31" transform="translate(97 97)" fill="#e95c3f"/><g transform="translate(92.489 94.33)"><path d="M35.512,6.153a27.413,27.413,0,0,1,18.613,7.254,4.521,4.521,0,0,0-4.9,4.632c-.2,6.608,7.9,8.016,3.535,21.307L49.152,50.34,39.315,21.363c-.152-.449.025-.7.576-.7h2.781a.269.269,0,0,0,.263-.275V18.738a.266.266,0,0,0-.263-.274q-7.9.345-15.706,0a.266.266,0,0,0-.263.275v1.647a.27.27,0,0,0,.263.275h2.8c.622,0,.8.207.943.608l4.042,11.054-6.08,18.359L18.672,21.244c-.124-.369.026-.584.382-.584H22.24a.269.269,0,0,0,.263-.275V18.738a.265.265,0,0,0-.263-.274c-3.343.178-6.7.213-9.825.245A27.494,27.494,0,0,1,35.511,6.152h0Zm24.2,14.414A27.531,27.531,0,0,1,48.719,57.813L57.3,33.507c1.33-3.762,2.564-8.846,2.412-12.94h0ZM44.725,59.6a27.62,27.62,0,0,1-17.216.4L35.986,35.71,44.725,59.6h0ZM23.737,58.544a27.535,27.535,0,0,1-13.27-36.285l13.27,36.286h0ZM35.511,3.571a30.1,30.1,0,1,1-30.1,30.1A30.1,30.1,0,0,1,35.511,3.571Zm0-1.9a32,32,0,1,1-32,32,32.006,32.006,0,0,1,32-32Z" transform="translate(0 0)" fill="#fff" fill-rule="evenodd"/></g></g></svg>